<svg xmlns="http://www.w3.org/2000/svg" fill="none" viewBox="0 0 234 177" width="234" height="177">
  <title></title><path fill="#fff" d="M123.78 100.084l-55.79 63.53L1 44.6035h90.12l32.66 55.4805z"/>
  <path stroke="#FCD7D7" stroke-miterlimit="10" stroke-width="4" d="M103.52 71.6035L60.3301 133.704"/>
  <path stroke="#FCD7D7" stroke-miterlimit="10" stroke-width="1.5" d="M88.8301 106.604h-48M18.8301 44.123l42.81 74.63s9.94 16.91 20.65 17.39M37.6602 56.1035l8.89 15.5M42.3086 44.123l36.33 63.65 18.6 13.42M48.8301 55.6035h-41"/>
  <path fill="#FCD7D7" d="M108.87 74.6035H17.5405l-2.31-5H105.94l2.93 5z"/>
  <path stroke="#FCD7D7" stroke-miterlimit="10" stroke-width="1.5" d="M24.8301 86.6035H112.83M48.8301 95.6035h23M64.7695 44.123l14.97 27.48M90.3594 55.6641l9.8596 15.94"/>
  <path fill="#DBDBDE" d="M220.83 99.6035h-97v77.0005h97V99.6035z"/>
  <path stroke="#A5402D" stroke-linejoin="round" stroke-width="31" d="M31.7402 124.974s13.87 29.51 43.16 29.51c28.2898 0 44.4698-38.83 50.5198-57.0905a13.5741 13.5741 0 014.947-6.7317 13.5715 13.5715 0 017.953-2.5583"/>
  <path stroke="#DBDBDE" stroke-miterlimit="10" stroke-width="32" d="M121.119 108.494c1.77-4.3 3.2-8.29 4.3-11.6005a13.5682 13.5682 0 014.947-6.7317 13.5715 13.5715 0 017.953-2.5583h72.68c4.68 0 7.08 4 6.72 8.66l-10.71 77.6805"/>
  <path fill="#A5402D" d="M195.83 17.6035h-27v58h27v-58z"/>
  <path fill="#A5402D" d="M154.83 14.6035h27v47h-16a11.0004 11.0004 0 01-11-11v-36z"/>
  <path stroke="#000" stroke-miterlimit="10" stroke-width="1.5" d="M168.83 61.6035h6"/>
  <path fill="#A5402D" d="M154.829 28.8027a40.6046 40.6046 0 01-4.13 10.63 2.151 2.151 0 00.048 2.1254 2.151 2.151 0 001.852 1.0446h5.23"/>
  <path stroke="#000" stroke-linecap="round" stroke-miterlimit="10" stroke-width="1.5" d="M154.83 26.2735a7.5192 7.5192 0 015.06 1.21"/>
  <path fill="#000" d="M157.83 31.6035c.552 0 1-.4477 1-1s-.448-1-1-1-1 .4477-1 1 .448 1 1 1z"/>
  <path fill="#fff" d="M156.25 46.0936l4.68-2.16s.9 3-1 3.89c-1.9.89-3.68-1.73-3.68-1.73z"/>
  <path fill="#A5402D" d="M102.199 92.1243l-18.4802-3.72 6.82 25.4297s5.09 4 9.06 4l9.9202-21.0797-7.32-4.63z"/>
  <path stroke="#A5402D" stroke-linecap="round" stroke-linejoin="round" stroke-width="5" d="M102.82 98.9434l-6.5099-8.93-10.73-.74"/>
  <path stroke="#A5402D" stroke-linecap="round" stroke-linejoin="round" stroke-width="6" d="M106.42 95.353l-6.4498-8.93-18.23-.38a11.7196 11.7196 0 008.09 11.79M82.2289 91.5039s-.49 8.8101 9.06 12.0001M85.709 105.143s.86 7.44 6.32 8.07"/>
  <path stroke="#000" stroke-linecap="round" stroke-miterlimit="10" stroke-width="1.5" d="M94.189 111.404c.3448.41.5655.909.6361 1.44a2.8098 2.8098 0 01-1.2751 2.74c-.4514.288-.9756.44-1.511.44-.1098.01-.2202.01-.33 0a8.4872 8.4872 0 01-5-2.39M84.8297 91.043c.5 1.57 1.9 3.22 4.83 4.15a2.7606 2.7606 0 011.5954 1.4588 2.7617 2.7617 0 01.0546 2.1612 2.807 2.807 0 01-1.0328 1.329 2.8065 2.8065 0 01-1.6072.501 2.6502 2.6502 0 01-1-.18 16.632 16.632 0 01-5.24-3"/>
  <path stroke="#000" stroke-linecap="round" stroke-miterlimit="10" stroke-width="1.5" d="M90.6393 100.244c.5056.233 1.023.44 1.55.62a2.83 2.83 0 01.9984.527 2.8206 2.8206 0 011.0232 1.961 2.8202 2.8202 0 01-1.6112 2.771 2.817 2.817 0 01-1.0969.266 2.8213 2.8213 0 01-1.1135-.185 16.2773 16.2773 0 01-7.61-5.13"/>
  <path stroke="#000" stroke-linecap="round" stroke-miterlimit="10" stroke-width="1.5" d="M93.0686 105.674c.646.194 1.2007.614 1.5636 1.183.363.569.51 1.249.4144 1.916a2.8209 2.8209 0 01-.9353 1.724 2.8222 2.8222 0 01-1.8327.697h-.36a11.2415 11.2415 0 01-7.11-3.68"/>
  <path stroke="#A5402D" stroke-linecap="round" stroke-linejoin="round" stroke-width="9" d="M35.7305 97.2344l6.6 14.2296v9.64"/>
  <path fill="#A5402D" d="M24.3699 86.0938l-2.17 3.25a14.5398 14.5398 0 00-2.45 7.8199l-.33 17.0003 6.6 20.62 18.15-10.1-3.44-13.08-16.36-25.5102z"/>
  <path fill="#A5402D" d="M20.3297 99.7031l-4 4.2899a10.5718 10.5718 0 00-2.87 6.79c-.26 6.49.29 19.23 9.82 27.82l8.59-5.65-11.54-33.2499zM159.369 71.6035a23.7797 23.7797 0 0023.65 21.2969 23.7797 23.7797 0 0023.65-21.2969h-47.3z"/>
  <path stroke="#000" stroke-linecap="round" stroke-linejoin="round" stroke-width="1.5" d="M19.829 101.143l-.62 5.99M36.5591 108.543l-4.77.13M114.31 84.0035l-23.19-39.4H1l35.87 64.1905-1.33 2.85"/>
  <path stroke="#F88888" stroke-linecap="round" stroke-miterlimit="10" stroke-width="3" d="M87.7131 79.2301c4.1185-2.399 4.8229-8.8662 1.5734-14.445-3.2496-5.5788-9.2226-8.1566-13.341-5.7577-4.1185 2.399-4.8229 8.8662-1.5734 14.445 3.2496 5.5788 9.2225 8.1566 13.341 5.7577z"/>
  <path fill="#F88888" d="M90.37 86.2L87 80.52 89.59 79l3.96 6.75-3.18.45z"/>
  <path fill="#F43939" fill-rule="evenodd" d="M59.4888 94.8441a3.304 3.304 0 00-2.3351-.9671 3.3026 3.3026 0 00-2.3349.9671 3.3026 3.3026 0 00-.7159 3.5987c.166.4007.4092.7647.7159 1.0713l2.34 2.3399 2.33-2.3399a3.2785 3.2785 0 00.9764-2.335 3.2803 3.2803 0 00-.9764-2.335zM34.7402 71.063a3.31 3.31 0 00-4.68 4.67l2.34 2.34 2.34-2.34a3.3004 3.3004 0 00.7165-3.5989 3.3004 3.3004 0 00-.7165-1.0711zM60.6203 59.3929a3.3098 3.3098 0 00-5.7678 2.2965 3.3112 3.3112 0 001.0878 2.3735l2.34 2.34 2.34-2.34a3.2997 3.2997 0 000-4.67zM107.899 76.233a3.31 3.31 0 00-4.68 4.68l2.34 2.33 2.34-2.33a3.3076 3.3076 0 00.969-2.34c0-.8776-.348-1.7193-.969-2.34zM88.7593 49.0239a8.2502 8.2502 0 00-11.5514.1087 8.2502 8.2502 0 00-.1186 11.5513l5.83 5.84 5.84-5.84a8.2396 8.2396 0 002.4169-5.83 8.2406 8.2406 0 00-2.4169-5.83zm-5.84 8.79a3 3 0 110-6.0002 3 3 0 010 6.0002z" clip-rule="evenodd"/>
  <path fill="#000" d="M178.599 32.6042c-18.23-2.73-23.91-14.95-25.56-20.5a3.998 3.998 0 011.47-4.39c16.59-11.83 45.1-11 51.55 9.13 5.42 16.94-11.43 28.52 6.51 44.06a.9936.9936 0 01.309.5111.997.997 0 01-.037.5965 1.0025 1.0025 0 01-.37.4688 1.0012 1.0012 0 01-.572.1736h-30.07s-9.06-15.92-3.23-25.42"/>
  <path fill="#A5402D" d="M176.83 41.6035c4.418 0 8-3.5817 8-8s-3.582-8-8-8-8 3.5817-8 8 3.582 8 8 8z"/>
  <path stroke="#000" stroke-linecap="round" stroke-miterlimit="10" stroke-width="1.5" d="M176.829 29.1641l-4.71 4.72"/>
  <path fill="#fff" d="M174.47 37.2637l6.55 11.34h-13.09l6.54-11.34z"/>
  <path stroke="#A3A1AA" stroke-linecap="round" stroke-linejoin="round" stroke-width="1.5" d="M209.099 72.8828s7.26 2.64 5.94 5.61c-1.32 2.97-6.6 2.81-6.6 2.81s4.89 5.19 2.47 7.59c-2.42 2.4-8.25-.33-8.25-.33s2 6.29-1.65 7.77c-3.65 1.48-7.6-2.32-7.6-2.32s-1 6.2402-5.12 7.1102c-4.12.87-8.26-5.8202-8.26-5.8202s-5.51 5.6702-9.74 5.0002c-5.12-.8302-2-7.9302-2-7.9302s-7.23 3.34-11 1.51c-3.77-1.83 3.36-8 3.36-8s-7.26 2.81-9.58.17c-2.53-2.9 5.12-7.1 5.12-7.1s-7.76 1.09-9.74-1.36c-1.98-2.45 4-4.26 4-4.26"/>
  <path stroke="#000" stroke-linecap="round" stroke-miterlimit="10" stroke-width="1.5" d="M45.8301 118.024a49.0346 49.0346 0 007.85 10.34c6.39 6.38 13.53 10.13 21.23 10.13 15.32 0 28.7899-24.69 36.2799-47.3205a28.5416 28.5416 0 0110.397-14.1764 28.5407 28.5407 0 0116.733-5.3936h34.51"/>
  <path stroke="#A3A1AA" stroke-linecap="round" stroke-linejoin="round" stroke-width="1.5" d="M108.91 102.164s4.41-6.2698 7.38-4.6198c2.97 1.65 2.2 7.2598 2.2 7.2598s4.08-6.8798 7.05-5.0598c2.97 1.8198 1.65 8.1498 1.65 8.1498s5.89-5.89 8.7-4.41c2.81 1.48.22 8.59.22 8.59"/>
  <path stroke="#000" stroke-linecap="round" stroke-linejoin="round" stroke-width="1.5" d="M95.719 86.0838l-9.93-.75a2.8203 2.8203 0 00-2.912 2.6081 2.82 2.82 0 002.492 3.0119l7.41.92s-2.11 10.6702 8.55 14.6402"/>
</svg>
